<svg width="1080" height="287" viewBox="0 0 1080 287" fill="none" xmlns="http://www.w3.org/2000/svg">
<path fill-rule="evenodd" clip-rule="evenodd" d="M665.652 36.4619C626.962 37.3896 590.476 55.7277 557 91.0234V41.8038C590.401 15.2287 626.983 0.951335 664.786 0.0449789C666.059 0.012851 667.337 0 668.61 0C705.722 0 743.319 12.8879 776.67 36.4604V83.2988C744.612 53.2569 706.061 36.4266 668.628 36.4266C667.635 36.4266 666.643 36.4378 665.652 36.4619ZM579.324 275.999C608.162 283.187 637.738 286.781 667.843 286.781C697.345 286.781 727.353 283.329 757.665 276.423L749.642 240.898C693.975 253.575 639.607 253.492 588.062 240.642L579.324 275.999Z" fill="#B8945D"/>
<path fill-rule="evenodd" clip-rule="evenodd" d="M870.938 227.538C861.107 227.538 851.998 225.747 843.613 222.165C835.227 218.584 828.432 213.889 823.227 208.078L821.781 224.052H776.673V9.64209H825.829V84.9384C831.034 79.5201 837.49 75.1137 845.202 71.7226C852.91 68.338 861.007 66.64 869.492 66.64C882.794 66.64 894.599 70.1259 904.913 77.096C915.224 84.0662 923.32 93.6049 929.204 105.704C935.082 117.807 938.023 131.603 938.023 147.091C938.023 162.775 935.132 176.67 929.348 188.768C923.567 200.87 915.613 210.359 905.494 217.23C895.371 224.104 883.849 227.538 870.938 227.538ZM857.348 186.297C867.37 186.297 875.371 182.768 881.348 175.697C887.32 168.632 890.311 159.096 890.311 147.088C890.311 135.085 887.32 125.551 881.348 118.48C875.371 111.415 867.37 107.879 857.348 107.879C847.322 107.879 839.32 111.413 833.346 118.48C827.369 125.55 824.383 135.085 824.383 147.088C824.383 159.096 827.369 168.63 833.346 175.697C839.318 182.768 847.322 186.297 857.348 186.297ZM625.878 216.791C638.503 223.763 652.816 227.247 668.819 227.247C684.817 227.247 699.13 223.763 711.76 216.791C724.384 209.821 734.313 200.337 741.544 188.329C748.771 176.326 752.386 162.582 752.386 147.088C752.386 131.599 748.773 117.804 741.544 105.701C734.314 93.6017 724.384 84.063 711.76 77.0928C699.13 70.1227 684.817 66.6368 668.819 66.6368C652.816 66.6368 638.503 70.1227 625.878 77.0928C613.249 84.063 603.274 93.6034 595.95 105.701C588.622 117.805 584.961 131.599 584.961 147.088C584.961 162.582 588.622 176.326 595.95 188.329C603.274 200.337 613.249 209.821 625.878 216.791ZM693.108 174.391C686.746 181.555 678.65 185.136 668.819 185.136C658.986 185.136 650.842 181.555 644.385 174.391C637.924 167.229 634.698 158.126 634.698 147.09C634.698 135.861 637.924 126.615 644.385 119.352C650.842 112.093 658.986 108.463 668.819 108.463C678.652 108.463 686.746 112.091 693.108 119.352C699.471 126.615 702.652 135.863 702.652 147.09C702.652 158.126 699.471 167.229 693.108 174.391ZM472.77 247.869L491.565 285.916C512.766 285.916 528.96 280.833 540.141 270.668C551.319 260.501 556.912 244.383 556.912 222.311V69.8351H556.91V9.64209H507.76V69.8351H507.756V210.401C507.756 220.088 506.694 227.633 504.576 233.056C502.452 238.474 498.889 242.301 493.878 244.529C488.862 246.752 481.833 247.869 472.77 247.869ZM183.468 216.937C196.092 223.813 210.983 227.247 228.143 227.247C238.742 227.247 249.151 225.506 259.369 222.019C269.584 218.533 279.511 212.824 289.152 204.883L266.309 172.355C260.714 176.81 255.463 179.955 250.548 181.794C245.634 183.637 239.996 184.553 233.634 184.553C222.257 184.553 212.96 182.135 205.729 177.292C198.5 172.453 193.629 165.87 191.127 157.543H294.936L295.225 145.055C295.415 129.951 292.428 116.498 286.261 104.684C280.09 92.8773 271.415 83.5843 260.237 76.8037C249.056 70.0279 236.237 66.6384 221.779 66.6384C206.742 66.6384 193.342 70.1243 181.585 77.0944C169.825 84.0646 160.573 93.6049 153.827 105.703C147.076 117.805 143.706 131.795 143.706 147.67C143.706 162.967 147.177 176.617 154.116 188.62C161.058 200.629 170.839 210.067 183.468 216.937ZM190.551 131.114C194.406 115.241 205.104 107.299 222.649 107.299C230.356 107.299 236.767 109.529 241.878 113.979C246.983 118.435 249.731 124.048 250.118 130.824V131.114H190.551ZM374.458 226.958C361.735 226.958 350.312 223.522 340.192 216.648C330.072 209.778 322.071 200.289 316.192 188.186C310.309 176.089 307.371 162.293 307.371 146.799C307.371 131.114 310.309 117.275 316.192 105.267C322.071 93.2644 330.165 83.8252 340.483 76.9515C350.792 70.0809 362.602 66.64 375.904 66.64C385.926 66.64 394.7 68.5773 402.217 72.4487C409.735 76.3234 415.997 81.3562 421.012 87.5505V69.8351H469.302V224.345H419.854V206.629C414.65 212.632 408.189 217.519 400.481 221.296C392.769 225.071 384.094 226.958 374.458 226.958ZM388.339 186.006C398.554 186.006 406.6 182.477 412.483 175.406C418.362 168.341 421.303 158.805 421.303 146.798C421.303 134.989 418.362 125.55 412.483 118.48C406.6 111.415 398.554 107.879 388.339 107.879C378.313 107.879 370.36 111.413 364.483 118.48C358.599 125.55 355.662 134.989 355.662 146.798C355.662 158.805 358.599 168.339 364.483 175.406C370.359 182.477 378.313 186.006 388.339 186.006ZM27.9057 219.986C39.5667 224.825 53.1053 227.247 68.5312 227.247C81.0606 227.247 92.2418 225.021 102.073 220.57C111.904 216.117 119.661 210.019 125.35 202.273C131.034 194.53 133.881 185.622 133.881 175.552C133.881 165.677 130.794 157.355 124.627 150.574C120.77 146.319 115.565 142.587 109.013 139.394C102.457 136.199 94.6488 133.344 85.59 130.825C78.073 128.698 72.1889 126.904 67.9522 125.452C63.7107 124 60.7231 122.792 58.9894 121.821C54.9414 119.498 52.9166 116.302 52.9166 112.238C52.9166 104.88 57.9258 101.2 67.9522 101.2C74.6967 101.2 81.686 102.943 88.9151 106.429C96.1442 109.913 102.26 113.979 107.276 118.628L132.722 89.8749C124.626 82.7136 115.034 77.0511 103.951 72.8857C92.8623 68.7235 80.8623 66.64 67.9506 66.64C57.1517 66.64 46.9861 68.6271 37.4443 72.5949C27.9025 76.5643 20.2384 82.1771 14.4567 89.438C8.67336 96.7005 5.7817 105.267 5.7817 115.142C5.7817 121.339 6.83888 127.005 8.96124 132.131C11.0804 137.264 14.1672 141.766 18.2136 145.636C26.695 153.964 39.8018 160.354 57.5404 164.805C70.2649 168.1 78.3609 170.715 81.8299 172.648C85.107 174.585 86.7464 177.395 86.7464 181.07C86.7464 184.365 85.3965 187.023 82.6984 189.057C79.997 191.089 76.1426 192.106 71.1318 192.106C64.576 192.106 57.4924 190.753 49.8794 188.04C42.2616 185.33 35.4659 180.974 29.4939 174.97L0 200.528C6.93965 208.661 16.2368 215.15 27.9057 219.986ZM1014.65 227.247C999.223 227.247 985.684 224.825 974.023 219.986C962.356 215.148 953.059 208.66 946.119 200.528L975.613 174.97C981.585 180.974 988.381 185.33 995.998 188.04C1003.61 190.753 1010.7 192.106 1017.25 192.106C1022.26 192.106 1026.12 191.089 1028.82 189.057C1031.52 187.023 1032.87 184.365 1032.87 181.07C1032.87 177.395 1031.23 174.585 1027.95 172.648C1024.48 170.715 1016.38 168.1 1003.66 164.805C985.921 160.354 972.814 153.964 964.333 145.636C960.286 141.766 957.199 137.264 955.08 132.131C952.958 127.005 951.901 121.339 951.901 115.142C951.901 105.267 954.792 96.7005 960.576 89.438C966.357 82.1771 974.022 76.5643 983.563 72.5949C993.105 68.6271 1003.27 66.64 1014.07 66.64C1026.98 66.64 1038.98 68.7235 1050.07 72.8857C1061.15 77.0511 1070.74 82.7136 1078.84 89.8749L1053.39 118.628C1048.38 113.979 1042.26 109.913 1035.03 106.429C1027.81 102.943 1020.82 101.2 1014.07 101.2C1004.04 101.2 999.036 104.88 999.036 112.238C999.036 116.302 1001.06 119.498 1005.11 121.821C1006.84 122.792 1009.83 124 1014.07 125.452C1018.31 126.904 1024.19 128.698 1031.71 130.825C1040.77 133.344 1048.58 136.199 1055.13 139.394C1061.68 142.587 1066.89 146.319 1070.75 150.574C1076.91 157.355 1080 165.677 1080 175.552C1080 185.622 1077.15 194.53 1071.47 202.273C1065.78 210.019 1058.02 216.117 1048.19 220.57C1038.36 225.021 1027.18 227.247 1014.65 227.247Z" fill="#00457C"/>
</svg>
