<svg width="1000" height="128" viewBox="0 0 1000 128" fill="none" xmlns="http://www.w3.org/2000/svg">
<g clip-path="url(#clip0_502_288)">
<rect width="1000" height="128" fill="white" fill-opacity="0.0"/>
<path d="M184.178 109.599V8.88004H207.316V61.6894L230.999 37.1898H261.35L227.868 68.4944L260.397 109.599H233.312L212.897 82.65L207.316 87.8212V109.599H184.178Z" fill="black"/>
<path d="M299.326 110.961C291.793 110.961 285.055 109.328 279.114 106.062C273.17 102.795 268.474 98.3502 265.026 92.7228C261.577 87.0969 259.854 80.6557 259.854 73.396C259.854 66.1378 261.577 59.6723 265.026 53.9994C268.474 48.3311 273.17 43.8601 279.114 40.5925C285.055 37.3264 291.793 35.6941 299.326 35.6941C306.857 35.6941 313.594 37.3264 319.538 40.5925C325.479 43.8586 330.155 48.3296 333.557 53.9994C336.96 59.6723 338.662 66.1378 338.662 73.396C338.662 80.6557 336.96 87.0969 333.557 92.7228C330.155 98.3502 325.479 102.795 319.538 106.062C313.594 109.326 306.855 110.961 299.326 110.961ZM299.326 91.2239C303.953 91.2239 307.765 89.5476 310.758 86.1891C313.753 82.8336 315.25 78.5672 315.25 73.396C315.25 68.1338 313.753 63.8007 310.758 60.3982C307.763 56.9957 303.953 55.2937 299.326 55.2937C294.699 55.2937 290.864 56.9957 287.826 60.3982C284.784 63.8007 283.267 68.1338 283.267 73.396C283.267 78.5672 284.784 82.8351 287.826 86.1891C290.863 89.5476 294.697 91.2239 299.326 91.2239Z" fill="black"/>
<path d="M350.091 109.599V37.19H371.732L372.276 45.6288C374.815 42.634 378.014 40.2303 381.873 38.4146C385.728 36.6004 389.789 35.6926 394.054 35.6926C402.22 35.6926 408.458 38.21 412.768 43.2463C417.077 48.2811 419.234 55.5635 419.234 65.0905V109.597H396.095V66.9987C396.095 58.8311 392.602 54.8406 385.615 55.0209C381.985 55.0209 378.99 56.1106 376.632 58.287C374.271 60.4665 373.093 63.143 373.093 66.3182V109.6H350.091V109.599Z" fill="black"/>
<path d="M459.25 110.961C451.989 110.961 445.616 109.825 440.127 107.559C434.636 105.292 430.259 102.25 426.992 98.4381L440.875 86.4619C443.687 89.2748 446.885 91.3163 450.47 92.5864C454.053 93.858 457.388 94.4915 460.475 94.4915C462.833 94.4915 464.647 94.0171 465.919 93.0638C467.189 92.1105 467.824 90.8647 467.824 89.3203C467.824 87.5971 467.053 86.2815 465.51 85.3737C463.876 84.4674 460.066 83.2428 454.078 81.6984C445.728 79.6129 439.558 76.6181 435.568 72.7155C433.663 70.9013 432.209 68.7916 431.212 66.3863C430.213 63.9826 429.714 61.3288 429.714 58.4234C429.714 53.7948 431.075 49.7815 433.797 46.379C436.519 42.9765 440.127 40.3454 444.617 38.4843C449.109 36.6246 453.894 35.6941 458.977 35.6941C465.055 35.6941 470.704 36.6701 475.923 38.6207C481.14 40.5728 485.655 43.2266 489.467 46.5836L477.489 60.0587C475.128 57.8793 472.248 55.9757 468.846 54.3419C465.443 52.7096 462.153 51.8927 458.977 51.8927C454.258 51.8927 451.9 53.6175 451.9 57.0654C451.9 58.9705 452.853 60.468 454.758 61.5561C455.575 62.0123 456.981 62.5777 458.977 63.2582C460.972 63.9371 463.741 64.7783 467.28 65.7756C471.543 66.9547 475.219 68.293 478.304 69.7904C481.387 71.2863 483.838 73.0353 485.653 75.0298C488.557 78.208 490.009 82.1076 490.009 86.7362C490.009 91.4543 488.669 95.6297 485.994 99.2581C483.316 102.889 479.665 105.746 475.038 107.833C470.41 109.916 465.147 110.961 459.25 110.961Z" fill="black"/>
<path d="M524.307 111.096C516.321 111.096 510.083 108.533 505.593 103.406C501.102 98.2804 498.856 91.0874 498.856 81.8332V37.1898H521.994V79.1112C521.994 83.1942 522.969 86.3709 524.921 88.6382C526.871 90.907 529.662 92.0407 533.291 92.0407C536.829 92.0407 539.733 90.9525 542.002 88.7746C544.269 86.5967 545.404 83.8292 545.404 80.4722V37.1898H568.543V109.599H546.902L546.221 100.616C543.86 103.793 540.73 106.331 536.829 108.236C532.926 110.143 528.752 111.096 524.307 111.096Z" fill="black"/>
<path d="M585.28 109.599V8.88013H608.417V109.599H585.28Z" fill="black"/>
<path d="M630.06 109.599V57.1973H617.537V37.1899H630.06V18.9528H653.199V37.1899H666.674V57.1973H653.199V109.599H630.06Z" fill="black"/>
<path d="M702.197 110.825C696.209 110.825 690.833 109.216 686.068 105.993C681.304 102.774 677.538 98.326 674.771 92.6546C672.003 86.9848 670.621 80.5193 670.621 73.2596C670.621 65.909 672.003 59.4222 674.771 53.7948C677.538 48.1704 681.35 43.7464 686.204 40.5243C691.057 37.3052 696.617 35.6926 702.877 35.6926C707.594 35.6926 711.725 36.6004 715.263 38.4146C718.802 40.2303 721.75 42.59 724.111 45.4924V37.1885H746.84V109.597H723.567V101.294C721.118 104.106 718.076 106.398 714.447 108.167C710.816 109.94 706.733 110.825 702.197 110.825ZM708.731 91.6331C713.54 91.6331 717.327 89.9781 720.096 86.6665C722.862 83.355 724.247 78.887 724.247 73.2596C724.247 67.7261 722.862 63.3021 720.096 59.989C717.327 56.676 713.54 55.0209 708.731 55.0209C704.013 55.0209 700.269 56.6775 697.503 59.989C694.734 63.3021 693.352 67.7246 693.352 73.2596C693.352 78.887 694.734 83.355 697.503 86.6665C700.269 89.9781 704.011 91.6331 708.731 91.6331Z" fill="black"/>
<path d="M763.442 109.599V37.19H785.084L785.628 45.6288C788.166 42.634 791.364 40.2303 795.223 38.4146C799.079 36.6004 803.139 35.6926 807.404 35.6926C815.571 35.6926 821.808 38.21 826.12 43.2463C830.429 48.2811 832.585 55.5635 832.585 65.0905V109.597H809.447V66.9987C809.447 58.8311 805.952 54.8406 798.966 55.0209C795.335 55.0209 792.342 56.1106 789.982 58.287C787.621 60.4665 786.443 63.143 786.443 66.3182V109.6H763.442V109.599Z" fill="black"/>
<path d="M848.103 109.599V8.88013H871.241V61.6895L894.924 37.1899H925.275L891.794 68.4945L924.325 109.599H897.24L876.823 82.6501L871.241 87.8213V109.599H848.103Z" fill="black"/>
<path d="M955.764 111.096C947.777 111.096 941.541 108.533 937.048 103.406C932.558 98.2804 930.312 91.0874 930.312 81.8332V37.1898H953.452V79.1112C953.452 83.1942 954.426 86.3709 956.378 88.6382C958.327 90.907 961.119 92.0407 964.747 92.0407C968.286 92.0407 971.19 90.9525 973.459 88.7746C975.725 86.5967 976.861 83.8292 976.861 80.4722V37.1898H1000V109.599H978.359L977.678 100.616C975.319 103.793 972.187 106.331 968.288 108.236C964.384 110.143 960.208 111.096 955.764 111.096Z" fill="black"/>
<path d="M207.316 8.88004H184.178V52.4791H207.316V8.88004Z" fill="#0077FF"/>
<path d="M207.317 14.4662H214.345V8.87974H207.317V14.4662Z" fill="#0077FF"/>
<path d="M786.581 109.599H793.609V104.013H786.581V109.599Z" fill="#0077FF"/>
<path d="M343.063 109.599H350.091V104.013H343.063V109.599Z" fill="#0077FF"/>
<path d="M841.075 14.4662H848.103V8.87974H841.075V14.4662Z" fill="#0077FF"/>
<path d="M373.229 65.9998H350.091V109.599H373.229V65.9998Z" fill="#0077FF"/>
<path d="M786.581 65.9998H763.442V109.599H786.581V65.9998Z" fill="#0077FF"/>
<path d="M608.419 8.88013H585.28V52.4792H608.419V8.88013Z" fill="#0077FF"/>
<path d="M871.241 8.88013H848.103V52.4792H871.241V8.88013Z" fill="#0077FF"/>
<path d="M63.6551 128.31C98.8108 128.31 127.31 99.8108 127.31 64.6551C127.31 29.4993 98.8108 1 63.6551 1C28.4993 1 0 29.4993 0 64.6551C0 99.8108 28.4993 128.31 63.6551 128.31Z" fill="#0077FF"/>
<path d="M71.0654 32.2126H56.2446V60.1384H71.0654V32.2126Z" fill="white"/>
<path d="M36.5686 53.943H21.7478V81.8688H36.5686V53.943Z" fill="white"/>
<path d="M59.1569 69.1706H44.3362V97.0964H59.1569V69.1706Z" fill="white"/>
<path d="M82.9738 69.1706H68.1531V97.0964H82.9738V69.1706Z" fill="white"/>
<path d="M105.561 53.943H90.7402V81.8688H105.561V53.943Z" fill="white"/>
<path d="M36.5702 57.5211H41.0708V53.9426H36.5702V57.5211Z" fill="white"/>
<path d="M82.9745 97.097H87.4751V93.5186H82.9745V97.097Z" fill="white"/>
<path d="M39.8361 97.097H44.3367V93.5186H39.8361V97.097Z" fill="white"/>
<path d="M86.2401 57.5211H90.7407V53.9426H86.2401V57.5211Z" fill="white"/>
</g>
<defs>
<clipPath id="clip0_502_288">
<rect width="1000" height="128" fill="white"/>
</clipPath>
</defs>
</svg>
