<svg width="1000" height="128" viewBox="0 0 1000 128" fill="none" xmlns="http://www.w3.org/2000/svg">
<rect width="1000" height="128" fill="white" fill-opacity="0.0"/>
<path d="M0 124.458V1.00098H28.3623V65.7325L57.3915 35.7019H94.5948L53.5534 74.0737L93.4263 124.458H60.2264L35.2025 91.4251L28.3623 97.7638V124.458H0Z" fill="black"/>
<path d="M141.158 126.126C131.925 126.126 123.665 124.123 116.383 120.119C109.097 116.116 103.341 110.667 99.1149 103.769C94.8867 96.8734 92.7744 88.9779 92.7744 80.0793C92.7744 71.1826 94.8867 63.2574 99.1149 56.3038C103.341 49.3558 109.097 43.8755 116.383 39.8702C123.665 35.8667 131.925 33.8659 141.158 33.8659C150.389 33.8659 158.647 35.8667 165.933 39.8702C173.215 43.8736 178.946 49.354 183.117 56.3038C187.287 63.2574 189.374 71.1826 189.374 80.0793C189.374 88.9779 187.287 96.8734 183.117 103.769C178.946 110.667 173.215 116.116 165.933 120.119C158.647 124.121 150.387 126.126 141.158 126.126ZM141.158 101.932C146.829 101.932 151.502 99.8774 155.171 95.7606C158.842 91.6475 160.677 86.418 160.677 80.0793C160.677 73.6292 158.842 68.3179 155.171 64.1472C151.5 59.9766 146.829 57.8903 141.158 57.8903C135.486 57.8903 130.786 59.9766 127.061 64.1472C123.333 68.3179 121.473 73.6292 121.473 80.0793C121.473 86.418 123.333 91.6494 127.061 95.7606C130.784 99.8774 135.484 101.932 141.158 101.932Z" fill="black"/>
<path d="M203.381 124.457V35.7014H229.908L230.575 46.0453C233.686 42.3744 237.608 39.428 242.338 37.2024C247.064 34.9787 252.041 33.8659 257.269 33.8659C267.278 33.8659 274.925 36.9516 280.208 43.1249C285.49 49.2964 288.133 58.2229 288.133 69.9007V124.455H259.771V72.2396C259.771 62.2282 255.489 57.3367 246.925 57.5578C242.475 57.5578 238.804 58.8935 235.914 61.5613C233.019 64.2327 231.576 67.5135 231.576 71.4055V124.459H203.381V124.457Z" fill="black"/>
<path d="M337.17 126.126C328.27 126.126 320.458 124.732 313.729 121.955C306.998 119.176 301.633 115.447 297.63 110.775L314.647 96.095C318.093 99.543 322.013 102.045 326.408 103.602C330.8 105.161 334.887 105.937 338.671 105.937C341.562 105.937 343.785 105.356 345.344 104.187C346.901 103.019 347.679 101.492 347.679 99.5987C347.679 97.4865 346.734 95.8739 344.843 94.7611C342.84 93.6502 338.169 92.1491 330.829 90.2561C320.595 87.6998 313.032 84.0289 308.141 79.2452C305.806 77.0215 304.024 74.4355 302.802 71.4872C301.577 68.5408 300.966 65.2879 300.966 61.7266C300.966 56.053 302.634 51.1337 305.971 46.9631C309.307 42.7924 313.729 39.5673 319.233 37.286C324.74 35.0066 330.605 33.8659 336.836 33.8659C344.285 33.8659 351.209 35.0623 357.607 37.4532C364.001 39.846 369.536 43.0989 374.208 47.2138L359.526 63.7311C356.632 61.0597 353.102 58.7263 348.931 56.7237C344.761 54.7229 340.728 53.7215 336.836 53.7215C331.051 53.7215 328.16 55.8357 328.16 60.0621C328.16 62.3972 329.328 64.2327 331.664 65.5666C332.665 66.1258 334.389 66.8187 336.836 67.6528C339.28 68.4851 342.675 69.5162 347.012 70.7386C352.238 72.1839 356.743 73.8243 360.526 75.6597C364.304 77.4933 367.308 79.6372 369.534 82.082C373.093 85.9777 374.873 90.7577 374.873 96.4312C374.873 102.214 373.231 107.333 369.952 111.78C366.669 116.231 362.194 119.733 356.522 122.291C350.849 124.844 344.399 126.126 337.17 126.126Z" fill="black"/>
<path d="M416.924 126.293C407.135 126.293 399.489 123.152 393.984 116.867C388.479 110.584 385.726 101.767 385.726 90.4238V35.7018H414.089V87.0872C414.089 92.092 415.283 95.9859 417.676 98.7651C420.067 101.546 423.487 102.936 427.936 102.936C432.272 102.936 435.832 101.602 438.613 98.9323C441.392 96.2627 442.783 92.8704 442.783 88.7555V35.7018H471.146V124.458H444.619L443.785 113.447C440.89 117.341 437.054 120.452 432.272 122.788C427.489 125.125 422.372 126.293 416.924 126.293Z" fill="black"/>
<path d="M491.635 124.457V1H519.996V124.457H491.635Z" fill="black"/>
<path d="M546.547 124.457V60.2254H531.196V35.7012H546.547V13.3469H574.909V35.7012H591.426V60.2254H574.909V124.457H546.547Z" fill="black"/>
<path d="M634.979 125.96C627.639 125.96 621.05 123.987 615.209 120.038C609.37 116.092 604.754 110.639 601.361 103.688C597.969 96.7378 596.275 88.8126 596.275 79.914C596.275 70.9039 597.969 62.9527 601.361 56.0549C604.754 49.1608 609.426 43.738 615.376 39.7884C621.325 35.8426 628.139 33.8659 635.813 33.8659C641.595 33.8659 646.659 34.9787 650.995 37.2024C655.333 39.428 658.946 42.3205 661.841 45.8781V35.6995H689.701V124.455H661.174V114.277C658.171 117.725 654.443 120.534 649.995 122.702C645.544 124.875 640.54 125.96 634.979 125.96ZM642.988 102.436C648.883 102.436 653.525 100.407 656.919 96.3477C660.31 92.2885 662.008 86.8118 662.008 79.914C662.008 73.1313 660.31 67.7086 656.919 63.6475C653.525 59.5865 648.883 57.5578 642.988 57.5578C637.205 57.5578 632.616 59.5883 629.226 63.6475C625.832 67.7086 624.137 73.1295 624.137 79.914C624.137 86.8118 625.832 92.2885 629.226 96.3477C632.616 100.407 637.203 102.436 642.988 102.436Z" fill="black"/>
<path d="M710.036 124.457V35.7014H736.563L737.23 46.0453C740.342 42.3744 744.261 39.428 748.991 37.2024C753.717 34.9787 758.694 33.8659 763.922 33.8659C773.933 33.8659 781.578 36.9516 786.863 43.1249C792.145 49.2964 794.789 58.2229 794.789 69.9007V124.455H766.426V72.2396C766.426 62.2282 762.142 57.3367 753.58 57.5578C749.129 57.5578 745.46 58.8935 742.567 61.5613C739.673 64.2327 738.229 67.5135 738.229 71.4055V124.459H710.036V124.457Z" fill="black"/>
<path d="M813.796 124.457V1H842.159V65.7315L871.188 35.7009H908.391L867.352 74.0728L907.226 124.457H874.027L849.001 91.4242L842.159 97.7628V124.457H813.796Z" fill="black"/>
<path d="M945.778 126.293C935.987 126.293 928.343 123.152 922.836 116.867C917.332 110.584 914.579 101.767 914.579 90.4238V35.7018H942.943V87.0872C942.943 92.092 944.137 95.9859 946.53 98.7651C948.919 101.546 952.341 102.936 956.789 102.936C961.126 102.936 964.686 101.602 967.467 98.9323C970.244 96.2627 971.638 92.8704 971.638 88.7555V35.7018H1000V124.458H973.473L972.639 113.447C969.746 117.341 965.908 120.452 961.128 122.788C956.343 125.125 951.225 126.293 945.778 126.293Z" fill="black"/>
<path d="M28.3623 1.00098H0V54.4429H28.3623V1.00098Z" fill="white"/>
<path d="M28.3683 7.84875L36.9827 7.84875V1.00108L28.3683 1.00108V7.84875Z" fill="white"/>
<path d="M738.414 124.46H747.028V117.612H738.414V124.46Z" fill="white"/>
<path d="M194.766 124.46H203.381V117.612H194.766V124.46Z" fill="white"/>
<path d="M805.182 7.84875L813.796 7.84875V1.00108L805.182 1.00108V7.84875Z" fill="white"/>
<path d="M231.743 71.0146H203.381V124.457H231.743V71.0146Z" fill="white"/>
<path d="M738.398 71.0146H710.036V124.457H738.398V71.0146Z" fill="white"/>
<path d="M519.998 1H491.635V54.4419H519.998V1Z" fill="white"/>
<path d="M842.159 1H813.796V54.4419H842.159V1Z" fill="white"/>
</svg>
