<svg width="1000" height="128" viewBox="0 0 1000 128" fill="none" xmlns="http://www.w3.org/2000/svg">
<rect width="1000" height="128" fill="white" fill-opacity="0.0"/>
<path d="M0 124.458V1.00079H28.3624V65.7325L57.3917 35.7019H94.5952L53.5536 74.0739L93.4267 124.458H60.2267L35.2027 91.4253L28.3624 97.764V124.458H0Z" fill="white"/>
<path d="M141.146 126.128C131.913 126.128 123.653 124.125 116.371 120.122C109.084 116.118 103.329 110.669 99.1027 103.772C94.8745 96.8756 92.7622 88.9802 92.7622 80.0815C92.7622 71.1847 94.8745 63.2595 99.1027 56.3059C103.329 49.3579 109.084 43.8775 116.371 39.8722C123.653 35.8687 131.913 33.8679 141.146 33.8679C150.377 33.8679 158.635 35.8687 165.921 39.8722C173.203 43.8757 178.934 49.3561 183.105 56.3059C187.276 63.2595 189.362 71.1847 189.362 80.0815C189.362 88.9802 187.276 96.8756 183.105 103.772C178.934 110.669 173.203 116.118 165.921 120.122C158.635 124.123 150.375 126.128 141.146 126.128ZM141.146 101.934C146.817 101.934 151.49 99.8796 155.159 95.7628C158.83 91.6498 160.665 86.4202 160.665 80.0815C160.665 73.6314 158.83 68.32 155.159 64.1494C151.488 59.9787 146.817 57.8924 141.146 57.8924C135.474 57.8924 130.774 59.9787 127.049 64.1494C123.32 68.32 121.461 73.6314 121.461 80.0815C121.461 86.4202 123.32 91.6516 127.049 95.7628C130.772 99.8796 135.472 101.934 141.146 101.934Z" fill="white"/>
<path d="M203.376 124.458V35.7019H229.903L230.57 46.0459C233.682 42.375 237.603 39.4286 242.333 37.203C247.059 34.9792 252.036 33.8664 257.264 33.8664C267.274 33.8664 274.92 36.9522 280.204 43.1255C285.485 49.297 288.129 58.2235 288.129 69.9014V124.456H259.766V72.2403C259.766 62.2288 255.484 57.3373 246.92 57.5584C242.471 57.5584 238.8 58.8941 235.909 61.5619C233.015 64.2333 231.571 67.5141 231.571 71.4061V124.46H203.376V124.458Z" fill="white"/>
<path d="M337.171 126.128C328.27 126.128 320.459 124.735 313.73 121.957C306.999 119.178 301.634 115.45 297.63 110.777L314.647 96.0972C318.094 99.5452 322.013 102.048 326.409 103.604C330.801 105.163 334.888 105.94 338.672 105.94C341.563 105.94 343.786 105.358 345.345 104.19C346.902 103.021 347.68 101.494 347.68 99.601C347.68 97.4887 346.735 95.8762 344.843 94.7634C342.841 93.6524 338.17 92.1514 330.83 90.2583C320.596 87.702 313.033 84.0311 308.142 79.2474C305.806 77.0236 304.025 74.4376 302.802 71.4894C301.578 68.543 300.967 65.29 300.967 61.7287C300.967 56.0551 302.635 51.1358 305.972 46.9651C309.308 42.7944 313.73 39.5694 319.234 37.2881C324.741 35.0086 330.606 33.8679 336.836 33.8679C344.286 33.8679 351.21 35.0643 357.608 37.4553C364.002 39.848 369.537 43.101 374.209 47.2159L359.527 63.7332C356.633 61.0618 353.103 58.7284 348.932 56.7258C344.762 54.725 340.728 53.7236 336.836 53.7236C331.051 53.7236 328.161 55.8378 328.161 60.0642C328.161 62.3994 329.329 64.2348 331.664 65.5687C332.666 66.1279 334.39 66.8208 336.836 67.655C339.281 68.4872 342.675 69.5183 347.013 70.7407C352.239 72.186 356.744 73.8264 360.527 75.6619C364.305 77.4955 367.309 79.6394 369.535 82.0842C373.094 85.9799 374.874 90.7599 374.874 96.4335C374.874 102.217 373.232 107.335 369.953 111.782C366.67 116.233 362.195 119.735 356.523 122.293C350.85 124.846 344.399 126.128 337.171 126.128Z" fill="white"/>
<path d="M416.914 126.293C407.125 126.293 399.479 123.152 393.974 116.867C388.47 110.584 385.717 101.767 385.717 90.4235V35.7014H414.079V87.087C414.079 92.0918 415.273 95.9857 417.666 98.7649C420.057 101.546 423.477 102.936 427.927 102.936C432.263 102.936 435.822 101.602 438.603 98.9321C441.382 96.2625 442.774 92.8702 442.774 88.7553V35.7014H471.136V124.458H444.609L443.775 113.447C440.881 117.341 437.045 120.452 432.263 122.788C427.479 125.125 422.363 126.293 416.914 126.293Z" fill="white"/>
<path d="M491.655 124.458V1.00058H520.015V124.458H491.655Z" fill="white"/>
<path d="M546.548 124.458V60.226H531.198V35.7017H546.548V13.3473H574.911V35.7017H591.428V60.226H574.911V124.458H546.548Z" fill="white"/>
<path d="M634.969 125.961C627.629 125.961 621.04 123.988 615.199 120.039C609.36 116.093 604.743 110.64 601.351 103.688C597.959 96.7385 596.265 88.8133 596.265 79.9147C596.265 70.9046 597.959 62.9533 601.351 56.0555C604.743 49.1613 609.416 43.7386 615.366 39.789C621.315 35.8431 628.129 33.8664 635.803 33.8664C641.585 33.8664 646.649 34.9792 650.985 37.203C655.323 39.4286 658.936 42.3211 661.831 45.8787V35.7H689.691V124.456H661.164V114.278C658.161 117.726 654.433 120.535 649.985 122.703C645.534 124.876 640.529 125.961 634.969 125.961ZM642.978 102.436C648.873 102.436 653.515 100.408 656.909 96.3484C660.3 92.2892 661.998 86.8125 661.998 79.9147C661.998 73.132 660.3 67.7092 656.909 63.6481C653.515 59.5871 648.873 57.5584 642.978 57.5584C637.195 57.5584 632.606 59.5889 629.216 63.6481C625.822 67.7092 624.127 73.1301 624.127 79.9147C624.127 86.8125 625.822 92.2892 629.216 96.3484C632.606 100.408 637.193 102.436 642.978 102.436Z" fill="white"/>
<path d="M710.039 124.458V35.7019H736.565L737.232 46.0459C740.344 42.375 744.264 39.4286 748.994 37.203C753.72 34.9792 758.697 33.8664 763.925 33.8664C773.936 33.8664 781.581 36.9522 786.866 43.1255C792.148 49.297 794.791 58.2235 794.791 69.9014V124.456H766.429V72.2403C766.429 62.2288 762.145 57.3373 753.583 57.5584C749.131 57.5584 745.462 58.8941 742.57 61.5619C739.675 64.2333 738.232 67.5141 738.232 71.4061V124.46H710.039V124.458Z" fill="white"/>
<path d="M813.812 124.458V1.00058H842.175V65.7323L871.204 35.7016H908.408L867.368 74.0736L907.243 124.458H874.043L849.017 91.4251L842.175 97.7638V124.458H813.812Z" fill="white"/>
<path d="M945.778 126.293C935.987 126.293 928.343 123.152 922.836 116.867C917.332 110.584 914.579 101.767 914.579 90.4235V35.7014H942.943V87.087C942.943 92.0918 944.137 95.9857 946.53 98.7649C948.919 101.546 952.341 102.936 956.789 102.936C961.127 102.936 964.686 101.602 967.467 98.9321C970.245 96.2625 971.638 92.8702 971.638 88.7553V35.7014H1000V124.458H973.473L972.639 113.447C969.747 117.341 965.909 120.452 961.129 122.788C956.343 125.125 951.225 126.293 945.778 126.293Z" fill="white"/>
<path d="M28.3624 1.00079H0V54.4429H28.3624V1.00079Z" fill="#0077FF"/>
<path d="M28.3624 7.84769L36.9768 7.84769V0.99999L28.3624 0.99999V7.84769Z" fill="#0077FF"/>
<path d="M738.409 124.459H747.023V117.611H738.409V124.459Z" fill="#0077FF"/>
<path d="M194.762 124.459H203.376V117.611H194.762V124.459Z" fill="#0077FF"/>
<path d="M805.198 7.84769L813.812 7.84769V0.99999L805.198 0.99999V7.84769Z" fill="#0077FF"/>
<path d="M231.738 71.0154H203.376V124.458H231.738V71.0154Z" fill="#0077FF"/>
<path d="M738.401 71.0154H710.039V124.458H738.401V71.0154Z" fill="#0077FF"/>
<path d="M520.017 1.00049H491.655V54.4426H520.017V1.00049Z" fill="#0077FF"/>
<path d="M842.175 1.00049H813.812V54.4426H842.175V1.00049Z" fill="#0077FF"/>
</svg>
